<!DOCTYPE svg PUBLIC "-//W3C//DTD SVG 20010904//EN" "http://www.w3.org/TR/2001/REC-SVG-20010904/DTD/svg10.dtd">
<svg version="1.0" xmlns="http://www.w3.org/2000/svg" width="70px" height="70px" viewBox="0 0 700 700" preserveAspectRatio="xMidYMid meet">
<g id="layer101" fill="#de0303" stroke="none">
 <path d="M0 350 l0 -350 350 0 350 0 0 350 0 350 -350 0 -350 0 0 -350z"/>
 </g>
<g id="layer102" fill="#e11d1d" stroke="none">
 <path d="M0 350 l0 -350 350 0 350 0 0 350 0 350 -350 0 -350 0 0 -350z m507 234 c-3 -3 -12 -4 -19 -1 -8 3 -5 6 6 6 11 1 17 -2 13 -5z m-83 -15 c-32 -8 -83 -44 -218 -156 -97 -80 -176 -151 -176 -159 0 -32 25 -19 113 56 139 120 244 196 287 209 40 12 159 13 198 3 13 -4 -25 -7 -85 -7 -129 0 -137 -3 -283 -120 -68 -53 -100 -86 -100 -100 0 -15 -2 -17 -9 -6 -7 11 -18 5 -52 -27 l-44 -40 24 -26 c13 -14 28 -23 32 -20 5 3 15 26 23 52 8 26 15 38 15 27 1 -12 -8 -38 -19 -60 -13 -25 -17 -42 -10 -49 12 -12 7 -18 61 78 52 94 153 200 225 236 40 20 68 25 150 28 l102 4 11 32 c10 30 10 30 5 -9 -7 -46 -20 -65 -43 -64 -13 1 -13 2 2 6 9 2 17 9 17 15 0 7 -34 9 -97 6 -85 -3 -105 -8 -151 -33 -70 -38 -166 -142 -221 -239 -43 -75 -44 -79 -26 -92 23 -17 27 -13 49 48 15 42 64 98 85 98 5 0 22 22 39 49 16 27 42 57 57 67 33 22 183 74 210 73 11 0 -2 -6 -30 -14 -57 -15 -105 -62 -159 -155 -35 -60 -57 -71 -87 -44 -17 15 -22 16 -44 4 -29 -15 -60 -61 -70 -102 -15 -58 -30 -55 -110 23 -53 51 -75 79 -73 93 3 23 313 288 363 311 17 8 41 14 55 14 17 -1 11 -4 -16 -10z m154 4 c-10 -2 -26 -2 -35 0 -10 3 -2 5 17 5 19 0 27 -2 18 -5z"/>
 <path d="M435 391 c-43 -20 -76 -48 -101 -87 -19 -29 -19 -29 21 -37 25 -5 32 -1 42 19 8 18 8 24 0 25 -7 0 -1 5 13 10 20 8 22 12 10 19 -13 8 -13 10 1 10 16 0 66 47 58 54 -2 3 -22 -3 -44 -13z"/>
 <path d="M322 248 c5 -15 48 -18 48 -3 0 6 -11 11 -26 13 -18 3 -25 0 -22 -10z"/>
 </g>
<g id="layer103" fill="#e33030" stroke="none">
 <path d="M0 350 l0 -350 350 0 350 0 0 350 0 350 -350 0 -350 0 0 -350z m555 231 c33 -7 25 -9 -50 -10 -56 -1 -100 -6 -117 -15 -25 -13 -284 -225 -335 -275 -13 -12 -23 -26 -23 -31 0 -21 21 -18 47 6 51 48 287 235 318 252 24 13 56 17 153 17 89 -1 122 2 122 11 0 7 -7 15 -15 17 -11 3 -10 4 2 3 14 -1 18 -10 17 -39 -2 -51 -17 -65 -85 -78 -77 -15 -100 -34 -165 -136 -56 -86 -77 -99 -108 -68 -8 8 -19 15 -24 15 -20 0 -81 -80 -87 -114 -4 -19 -14 -37 -22 -40 -22 -9 -165 132 -161 158 3 18 88 95 281 254 90 73 157 92 252 73z m62 -18 c-4 -3 -10 -3 -14 0 -3 4 0 7 7 7 7 0 10 -3 7 -7z"/>
 <path d="M405 496 c-27 -14 -93 -60 -145 -102 -90 -72 -96 -78 -106 -127 -6 -29 -17 -64 -24 -80 -12 -25 -11 -30 10 -52 32 -35 45 -31 59 15 13 43 53 96 79 104 9 3 30 26 46 51 15 25 42 56 60 69 31 23 159 69 229 81 20 4 37 12 37 17 0 7 -36 9 -97 6 -85 -3 -105 -8 -151 -33 -72 -39 -169 -144 -215 -233 -22 -41 -41 -71 -44 -69 -8 8 42 98 91 164 54 74 143 147 205 168 27 9 80 15 135 15 70 0 87 3 78 12 -7 7 -51 14 -105 16 -83 3 -97 1 -142 -22z"/>
 <path d="M414 381 c-29 -18 -94 -88 -94 -102 0 -8 58 -18 65 -11 3 3 -1 12 -8 20 -10 13 -9 15 5 9 20 -7 35 9 16 16 -8 3 -5 6 6 6 12 1 16 6 12 16 -3 9 0 15 8 15 7 0 23 11 36 25 22 23 22 25 4 25 -10 0 -33 -9 -50 -19z"/>
 <path d="M92 256 l-37 -35 26 -27 c26 -26 27 -26 38 -7 16 31 30 103 20 103 -5 0 -26 -16 -47 -34z"/>
 <path d="M322 248 c3 -7 15 -15 27 -16 16 -3 22 1 19 10 -3 7 -15 15 -27 16 -16 3 -22 -1 -19 -10z"/>
 </g>
<g id="layer104" fill="#e65050" stroke="none">
 <path d="M0 350 l0 -350 350 0 350 0 0 350 0 350 -350 0 -350 0 0 -350z m611 221 c15 -5 -15 -6 -76 -3 -77 3 -109 1 -137 -11 -35 -15 -309 -237 -352 -286 -13 -15 -16 -25 -9 -32 7 -7 20 0 42 20 78 73 289 236 329 253 40 18 104 22 226 15 32 -2 47 19 19 26 -13 4 -12 5 6 6 22 1 23 -2 18 -39 -7 -55 -20 -67 -81 -80 -78 -16 -108 -40 -170 -134 -59 -89 -79 -102 -110 -71 -12 12 -20 13 -35 6 -32 -17 -68 -68 -75 -104 -11 -60 -32 -55 -113 25 -40 40 -73 80 -73 88 0 19 40 58 195 187 139 115 164 133 208 144 36 9 153 3 188 -10z"/>
 <path d="M427 506 c-36 -13 -78 -43 -213 -150 -44 -35 -53 -47 -59 -86 -4 -25 -14 -58 -22 -73 -8 -16 -12 -36 -8 -45 5 -12 18 6 48 63 29 56 64 103 117 156 96 97 152 120 284 120 117 0 101 20 -21 25 -61 3 -100 0 -126 -10z"/>
 <path d="M444 462 c-60 -21 -116 -63 -179 -135 -52 -60 -119 -182 -111 -203 10 -25 33 -15 40 18 7 38 50 96 80 109 12 6 34 30 48 53 14 24 42 56 63 71 34 27 62 37 198 73 31 8 57 19 57 23 0 16 -143 9 -196 -9z"/>
 <path d="M414 381 c-30 -18 -94 -88 -94 -103 0 -5 16 -8 36 -8 31 0 35 2 24 15 -10 13 -9 15 11 15 19 0 21 2 9 10 -13 8 -12 10 4 10 12 0 16 5 12 15 -3 9 0 15 8 15 13 0 46 31 46 43 0 13 -25 7 -56 -12z"/>
 <path d="M94 256 l-39 -34 25 -26 24 -27 15 28 c18 34 31 93 22 93 -4 0 -25 -15 -47 -34z"/>
 <path d="M322 248 c5 -15 37 -18 41 -3 1 6 -9 12 -22 13 -16 3 -22 -1 -19 -10z"/>
 </g>
<g id="layer105" fill="#e97171" stroke="none">
 <path d="M0 350 l0 -350 350 0 350 0 0 350 0 350 -350 0 -350 0 0 -350z m608 223 c72 -17 72 -17 72 -50 0 -45 -34 -78 -90 -87 -67 -11 -97 -34 -157 -124 -66 -99 -81 -109 -116 -81 l-26 20 -31 -28 c-17 -15 -38 -50 -48 -78 -10 -27 -25 -51 -33 -53 -19 -3 -159 134 -159 157 0 9 19 35 42 57 64 61 280 239 307 254 64 34 134 38 239 13z"/>
 <path d="M390 553 c-34 -18 -322 -255 -348 -286 -8 -9 -11 -21 -8 -26 4 -6 65 38 137 97 234 192 285 215 416 192 45 -7 69 -8 76 -1 17 17 -41 33 -143 38 -79 4 -101 1 -130 -14z"/>
 <path d="M424 505 c-23 -9 -90 -55 -149 -103 -107 -87 -108 -87 -125 -152 -9 -36 -20 -73 -24 -83 -5 -10 -4 -17 2 -17 5 0 22 24 37 53 63 120 160 222 253 265 48 22 71 26 150 26 116 0 106 16 -14 21 -64 4 -100 1 -130 -10z"/>
 <path d="M460 466 c-102 -27 -215 -139 -289 -284 -23 -45 -22 -72 3 -72 8 0 17 15 21 37 5 27 24 55 65 98 32 33 78 81 102 106 35 37 57 50 123 72 44 14 97 29 118 32 20 4 37 11 37 16 0 13 -127 10 -180 -5z"/>
 <path d="M425 384 c-39 -20 -66 -45 -88 -83 l-18 -31 38 1 c21 0 32 3 26 6 -18 7 -16 23 2 23 9 0 12 6 9 15 -4 10 0 15 12 15 16 0 17 2 4 10 -12 8 -11 10 6 10 12 0 29 11 38 25 19 29 13 31 -29 9z"/>
 <path d="M96 255 c-38 -34 -38 -36 -21 -55 10 -11 22 -20 27 -20 13 0 40 68 36 92 -3 17 -7 15 -42 -17z"/>
 <path d="M320 251 c0 -12 29 -23 42 -15 6 4 5 10 -3 15 -18 11 -39 11 -39 0z"/>
 </g>
<g id="layer106" fill="#ec9292" stroke="none">
 <path d="M0 350 l0 -350 350 0 350 0 0 350 0 350 -350 0 -350 0 0 -350z m620 222 c63 -17 65 -18 62 -47 -5 -52 -32 -77 -95 -90 -69 -14 -111 -50 -169 -147 -21 -36 -47 -69 -56 -73 -9 -3 -28 3 -44 15 l-27 20 -31 -27 c-17 -16 -38 -50 -48 -78 -10 -27 -25 -51 -34 -53 -17 -3 -115 82 -149 129 -18 26 -19 31 -6 49 27 38 346 297 379 307 49 16 145 14 218 -5z"/>
 <path d="M403 558 c-29 -12 -331 -255 -362 -291 -7 -9 -10 -21 -7 -26 4 -6 53 28 109 75 257 216 302 237 442 216 76 -12 110 -1 59 18 -45 18 -203 22 -241 8z"/>
 <path d="M440 509 c-42 -13 -68 -31 -187 -127 -74 -59 -93 -79 -93 -100 -1 -24 -12 -60 -35 -115 -4 -9 -3 -17 1 -17 5 0 25 30 44 67 40 78 174 220 232 246 55 26 145 40 208 33 40 -4 50 -3 38 4 -25 15 -167 21 -208 9z"/>
 <path d="M480 471 c-60 -13 -123 -52 -185 -116 -67 -69 -151 -206 -141 -231 10 -25 27 -12 42 31 8 24 35 61 66 91 29 28 68 70 87 93 41 52 123 91 239 114 28 6 52 14 52 19 0 10 -110 9 -160 -1z"/>
 <path d="M418 380 c-35 -19 -88 -76 -88 -96 0 -6 15 -10 33 -11 17 -1 26 1 20 3 -19 8 -16 24 5 24 14 0 15 2 2 10 -12 8 -12 10 3 16 9 3 14 10 11 15 -3 5 4 9 14 9 11 0 27 11 36 25 20 30 13 31 -36 5z"/>
 <path d="M97 254 c-36 -35 -37 -38 -21 -55 10 -11 21 -19 26 -19 13 0 40 68 36 91 -3 17 -8 15 -41 -17z"/>
 <path d="M325 250 c-7 -12 27 -22 37 -12 6 6 1 12 -11 15 -12 3 -23 2 -26 -3z"/>
 </g>
<g id="layer107" fill="#efb1b1" stroke="none">
 <path d="M0 350 l0 -350 350 0 350 0 0 350 0 350 -350 0 -350 0 0 -350z m625 222 c33 -10 59 -20 58 -25 -2 -4 -3 -20 -3 -35 0 -45 -20 -62 -93 -78 -58 -14 -72 -21 -107 -61 -22 -26 -54 -70 -71 -99 -36 -63 -61 -75 -94 -44 l-23 21 -36 -35 c-20 -20 -38 -49 -41 -64 -17 -78 -40 -78 -121 0 -74 70 -87 89 -78 112 10 27 343 298 382 312 50 18 154 16 227 -4z"/>
 <path d="M408 556 c-20 -7 -74 -44 -120 -82 -227 -187 -257 -215 -251 -230 4 -12 13 -8 42 19 71 68 277 228 321 250 47 23 158 30 228 15 24 -6 32 -4 32 6 0 9 -22 18 -63 25 -82 14 -143 13 -189 -3z"/>
 <path d="M455 511 c-48 -12 -84 -35 -192 -121 -92 -72 -103 -85 -103 -113 0 -18 -9 -52 -20 -76 -22 -49 -23 -51 -12 -51 4 0 22 28 39 63 59 112 162 219 253 261 35 16 66 20 142 21 53 0 91 3 84 7 -20 11 -158 18 -191 9z"/>
 <path d="M483 470 c-78 -16 -163 -77 -230 -165 -59 -79 -108 -174 -95 -187 13 -13 32 -2 32 19 0 28 44 94 76 113 17 11 44 40 59 64 15 25 41 54 57 66 31 23 154 66 218 76 22 4 37 10 34 15 -6 11 -93 10 -151 -1z"/>
 <path d="M415 376 c-36 -22 -92 -83 -83 -91 2 -2 17 -6 33 -9 17 -3 24 -3 18 0 -19 8 -16 24 5 24 13 0 14 2 3 9 -11 7 -10 10 4 18 9 5 17 14 17 19 0 5 3 8 8 7 4 -1 18 9 30 22 30 31 16 32 -35 1z"/>
 <path d="M102 257 c-30 -31 -32 -37 -20 -56 17 -28 29 -22 45 24 21 61 13 71 -25 32z"/>
 <path d="M338 238 c9 -9 15 -9 24 0 9 9 7 12 -12 12 -19 0 -21 -3 -12 -12z"/>
 </g>
<g id="layer108" fill="#f2d2d2" stroke="none">
 <path d="M0 350 l0 -350 350 0 350 0 0 350 0 350 -350 0 -350 0 0 -350z m623 224 l67 -17 -6 -36 c-12 -68 -16 -70 -126 -95 -41 -9 -89 -56 -133 -131 -45 -77 -75 -98 -104 -71 -35 32 -90 -9 -107 -80 -18 -75 -42 -71 -133 20 -60 60 -72 78 -66 95 8 28 317 287 370 312 51 24 147 25 238 3z"/>
 <path d="M408 556 c-42 -15 -368 -283 -368 -303 0 -20 11 -16 50 21 62 59 264 217 305 239 32 17 58 21 125 22 47 0 97 -3 113 -8 20 -5 27 -4 27 6 0 10 -23 18 -69 26 -89 14 -137 13 -183 -3z"/>
 <path d="M461 509 c-51 -10 -92 -35 -214 -133 -78 -63 -87 -73 -87 -103 0 -19 -9 -51 -20 -73 -22 -43 -24 -50 -12 -50 4 0 19 24 34 53 66 134 186 251 291 282 28 8 80 16 116 16 65 1 66 2 21 10 -55 9 -73 9 -129 -2z"/>
 <path d="M491 469 c-74 -13 -125 -44 -202 -126 -74 -79 -150 -210 -128 -224 18 -11 29 -2 29 25 0 29 52 102 79 111 11 3 34 29 52 56 18 28 48 61 68 74 38 25 188 75 224 75 18 0 19 2 7 10 -18 11 -55 11 -129 -1z"/>
 <path d="M435 386 c-46 -20 -124 -106 -96 -106 5 0 17 -3 25 -6 12 -5 15 -2 10 10 -4 11 0 16 12 17 11 0 14 3 7 6 -18 7 -16 23 3 23 8 0 12 5 9 10 -3 6 4 14 17 19 13 5 30 16 37 25 16 19 15 19 -24 2z"/>
 <path d="M95 250 c-28 -29 -28 -30 -10 -50 l19 -21 12 23 c16 33 26 78 16 78 -5 0 -21 -13 -37 -30z"/>
 <path d="M338 243 c6 -2 18 -2 25 0 6 3 1 5 -13 5 -14 0 -19 -2 -12 -5z"/>
 </g>
<g id="layer109" fill="#f6f6f6" stroke="none">
 <path d="M0 350 l0 -350 350 0 350 0 0 350 0 350 -350 0 -350 0 0 -350z m629 224 c30 -8 56 -16 59 -18 9 -10 -10 -85 -26 -99 -9 -8 -44 -20 -77 -27 -69 -14 -108 -48 -165 -144 -46 -77 -60 -86 -101 -62 l-32 19 -33 -36 c-19 -20 -36 -49 -40 -64 -10 -49 -13 -53 -36 -53 -26 0 -168 135 -168 160 0 20 40 58 195 187 167 138 176 144 236 153 60 8 108 4 188 -16z"/>
 <path d="M424 559 c-31 -7 -76 -38 -175 -121 -148 -122 -209 -178 -209 -190 0 -5 72 50 160 121 88 71 177 137 197 147 45 22 172 31 227 16 28 -8 36 -8 33 1 -4 13 -112 36 -162 35 -16 0 -49 -4 -71 -9z"/>
 <path d="M421 496 c-18 -6 -85 -52 -147 -101 -107 -84 -114 -92 -114 -125 0 -20 -8 -52 -19 -72 -10 -21 -16 -39 -14 -42 3 -2 18 21 34 51 42 80 93 146 152 198 77 67 126 87 231 95 l91 7 -90 1 c-49 0 -105 -5 -124 -12z"/>
 <path d="M445 458 c-92 -33 -206 -151 -273 -285 -17 -32 -19 -43 -9 -51 10 -8 17 1 30 38 11 30 31 60 55 79 51 44 49 41 83 89 16 23 44 52 62 62 31 19 166 65 217 73 14 2 -11 5 -55 5 -44 0 -93 -4 -110 -10z"/>
 <path d="M415 371 c-39 -23 -91 -84 -76 -89 13 -4 41 21 41 37 0 6 5 11 10 11 6 0 10 7 10 15 0 8 8 15 19 15 10 0 24 7 31 15 17 20 1 19 -35 -4z"/>
 <path d="M98 251 c-32 -29 -33 -29 -14 -50 11 -12 21 -19 23 -17 7 7 32 96 28 96 -3 0 -19 -13 -37 -29z"/>
 <path d="M338 243 c7 -3 16 -2 19 1 4 3 -2 6 -13 5 -11 0 -14 -3 -6 -6z"/>
 </g>

</svg>