<!DOCTYPE svg PUBLIC "-//W3C//DTD SVG 20010904//EN" "http://www.w3.org/TR/2001/REC-SVG-20010904/DTD/svg10.dtd">
<svg version="1.0" xmlns="http://www.w3.org/2000/svg" width="70px" height="70px" viewBox="0 0 700 700" preserveAspectRatio="xMidYMid meet">
<g id="layer101" fill="#de0303" stroke="none">
 <path d="M0 350 l0 -350 350 0 350 0 0 350 0 350 -350 0 -350 0 0 -350z"/>
 </g>
<g id="layer102" fill="#e11d1d" stroke="none">
 <path d="M0 350 l0 -350 350 0 350 0 0 350 0 350 -350 0 -350 0 0 -350z m438 206 c39 -26 74 -51 78 -58 4 -6 -6 -2 -22 10 -16 11 -54 36 -86 56 l-56 37 -84 -55 c-98 -65 -106 -72 -137 -111 l-23 -30 74 -5 73 -5 1 -65 1 -65 -6 60 -6 60 -70 0 -70 0 -3 -53 c-3 -49 0 -56 31 -87 30 -30 42 -35 81 -35 41 0 46 3 47 23 1 16 2 18 6 5 5 -22 23 -24 23 -3 0 8 6 12 14 9 8 -3 21 5 30 17 15 22 16 22 29 5 8 -11 19 -16 25 -12 7 4 12 2 12 -5 0 -36 95 -52 148 -25 42 22 66 79 56 132 l-6 34 -60 0 c-54 0 -62 3 -82 27 l-21 28 -6 -90 -6 -90 0 98 c0 53 3 97 6 97 4 0 17 -13 29 -30 20 -27 28 -30 77 -30 53 0 63 5 48 26 -5 5 -1 1 9 -8 9 -10 29 -19 45 -19 28 -2 28 -2 2 -6 -24 -4 -26 -8 -26 -56 2 -90 -48 -137 -143 -137 -50 0 -50 0 -50 -32 0 -25 -3 -29 -10 -18 -5 8 -10 27 -10 41 0 14 -11 36 -25 49 l-25 23 -25 -23 c-14 -13 -25 -31 -26 -39 0 -11 -2 -12 -6 -3 -9 22 -23 13 -23 -15 0 -22 2 -25 10 -13 7 10 8 -2 4 -40 -4 -30 -8 -56 -9 -58 -2 -2 -6 26 -10 62 l-7 66 -42 0 c-80 1 -126 51 -126 137 0 49 -2 52 -27 56 -27 4 -27 4 3 6 25 1 37 10 58 41 27 42 210 172 232 165 5 -1 42 -24 82 -49z m-82 -110 c-2 -6 -5 -2 -5 9 -1 17 -3 17 -11 5 -8 -12 -10 -12 -10 5 0 11 3 31 7 45 6 23 8 22 15 -14 5 -22 6 -44 4 -50z m-36 -100 c-8 -48 -15 -84 -18 -82 -2 3 1 43 9 90 7 48 14 84 17 82 2 -3 -1 -43 -8 -90z m68 -61 c0 -11 -6 9 -14 45 -7 36 -13 74 -12 85 0 11 6 -9 14 -45 7 -36 13 -74 12 -85z"/>
 </g>
<g id="layer103" fill="#e33030" stroke="none">
 <path d="M0 350 l0 -350 350 0 350 0 0 350 0 350 -350 0 -350 0 0 -350z m433 210 c42 -27 79 -55 82 -61 4 -6 -32 15 -79 45 l-86 56 -84 -55 c-46 -30 -101 -74 -122 -97 l-39 -43 75 -5 75 -5 7 -84 c7 -79 12 -100 23 -90 2 3 14 66 25 140 30 191 33 194 59 54 12 -66 25 -136 28 -155 l7 -35 7 30 c4 17 7 69 8 118 0 48 5 87 10 87 5 0 19 -13 31 -30 19 -27 27 -30 76 -30 58 0 63 4 37 32 -9 10 -12 18 -6 18 5 0 16 -11 23 -25 10 -18 22 -25 44 -26 29 -1 29 -2 7 -8 -22 -6 -25 -12 -25 -57 -2 -87 -57 -138 -148 -136 l-47 1 -3 -37 -4 -37 -9 44 c-4 24 -18 55 -30 69 l-23 27 -27 -27 c-21 -21 -29 -43 -38 -100 -9 -55 -13 -67 -18 -48 -4 14 -7 44 -8 66 -1 41 -1 41 -39 41 -83 0 -132 53 -132 142 0 47 -2 50 -27 54 -27 4 -27 4 4 6 24 1 36 9 51 35 11 19 40 48 64 66 56 41 161 109 169 110 3 0 40 -22 82 -50z"/>
 <path d="M336 440 c-19 -101 -32 -200 -25 -200 4 0 15 10 23 22 16 22 16 22 30 3 8 -11 17 -18 19 -15 4 4 -27 188 -37 215 -2 6 -6 -6 -10 -25z"/>
 <path d="M428 340 c-1 -49 -2 -98 -2 -107 -1 -15 9 -19 50 -21 43 -2 56 1 82 23 38 32 57 91 42 129 -9 24 -14 26 -69 26 -50 0 -62 3 -71 20 -21 39 -30 19 -32 -70z"/>
 <path d="M107 383 c-4 -3 -7 -29 -7 -56 0 -42 5 -54 34 -83 29 -29 41 -34 79 -34 l45 0 -5 78 c-2 42 -6 83 -9 90 -4 13 -125 18 -137 5z"/>
 <path d="M270 180 c0 -11 2 -20 4 -20 2 0 6 9 9 20 3 11 1 20 -4 20 -5 0 -9 -9 -9 -20z"/>
 </g>
<g id="layer104" fill="#e65151" stroke="none">
 <path d="M0 350 l0 -350 350 0 350 0 0 350 0 350 -350 0 -350 0 0 -350z m445 204 c47 -31 85 -60 85 -64 0 -4 -40 18 -89 51 l-89 58 -90 -59 c-49 -32 -104 -76 -121 -97 l-31 -38 75 -3 75 -3 0 -37 c0 -59 12 -142 20 -142 4 0 18 66 30 148 13 81 26 151 30 155 4 5 21 -60 36 -145 28 -146 29 -151 36 -103 3 28 7 80 7 118 1 37 5 67 10 67 5 0 19 -13 31 -30 19 -27 27 -30 77 -30 l55 0 -17 26 c-9 14 -14 28 -11 31 3 3 13 -8 23 -26 14 -25 25 -31 51 -31 20 0 31 -4 27 -10 -3 -5 -16 -10 -28 -10 -20 0 -22 -4 -19 -37 4 -46 -22 -98 -61 -127 -20 -15 -42 -20 -82 -20 l-55 1 0 -36 c0 -27 -3 -32 -10 -21 -5 8 -10 27 -10 42 0 15 -10 39 -23 54 l-23 27 -27 -25 c-20 -19 -29 -41 -38 -96 -7 -40 -16 -72 -20 -72 -5 0 -9 29 -9 65 0 64 0 65 -24 59 -15 -3 -42 2 -69 14 -54 24 -80 67 -80 130 0 37 -3 42 -23 42 -37 0 -39 20 -2 21 27 0 38 8 63 42 26 37 204 167 228 167 4 0 45 -25 92 -56z"/>
 <path d="M341 460 c-1 -3 -8 -43 -16 -90 -8 -47 -15 -96 -15 -110 l1 -25 20 25 c19 23 22 23 34 7 7 -9 14 -17 17 -17 3 0 -3 44 -13 97 -17 90 -26 126 -28 113z"/>
 <path d="M430 330 c0 -55 -1 -103 -2 -107 -2 -5 21 -9 50 -11 49 -3 56 0 87 31 31 31 35 41 35 86 l0 51 -60 0 c-52 0 -61 3 -76 25 -9 14 -20 25 -25 25 -5 0 -9 -45 -9 -100z"/>
 <path d="M102 324 c6 -75 36 -105 109 -112 46 -4 52 -3 46 12 -4 10 -7 49 -7 87 l0 69 -76 0 -76 0 4 -56z"/>
 <path d="M270 185 c0 -8 2 -15 4 -15 2 0 6 7 10 15 3 8 1 15 -4 15 -6 0 -10 -7 -10 -15z"/>
 </g>
<g id="layer105" fill="#e97070" stroke="none">
 <path d="M0 350 l0 -350 350 0 350 0 0 350 0 350 -350 0 -350 0 0 -350z m442 207 c78 -51 158 -125 158 -147 0 -6 16 -10 35 -10 19 0 35 -4 35 -10 0 -5 -12 -10 -28 -10 -26 0 -27 -2 -24 -42 7 -83 -71 -154 -155 -144 l-43 6 0 -36 c0 -46 -16 -36 -23 15 -2 21 -14 48 -24 58 -20 20 -20 20 -45 -2 -20 -17 -28 -38 -38 -94 -6 -39 -16 -71 -21 -71 -5 0 -9 27 -9 60 l0 60 -32 0 c-80 0 -141 60 -142 140 -1 48 -2 50 -28 50 -16 0 -28 5 -28 10 0 6 15 10 33 10 25 0 36 6 44 23 19 40 202 183 240 186 7 1 50 -23 95 -52z"/>
 <path d="M263 540 c-82 -53 -143 -109 -143 -131 0 -5 31 -9 69 -9 l69 0 7 -90 c4 -50 10 -90 14 -90 4 0 18 70 32 155 13 85 27 155 31 155 3 0 11 -24 17 -52 10 -46 38 -203 42 -233 3 -22 17 104 18 163 1 34 4 62 9 62 4 0 18 -16 31 -35 22 -33 27 -35 78 -35 49 0 53 2 44 18 -15 28 -88 89 -163 137 l-66 42 -89 -57z"/>
 <path d="M331 398 c-6 -35 -13 -85 -17 -113 l-6 -50 20 25 c17 20 22 22 36 11 13 -11 16 -11 16 -1 0 17 -31 184 -35 188 -1 2 -8 -25 -14 -60z"/>
 <path d="M432 323 l3 -108 54 0 c47 1 57 5 82 33 24 26 29 41 29 82 l0 50 -59 0 c-52 0 -62 3 -79 25 -11 14 -23 25 -26 25 -4 0 -5 -48 -4 -107z"/>
 <path d="M100 340 c0 -77 49 -130 120 -130 l31 0 -3 83 -3 82 -72 3 -73 3 0 -41z"/>
 <path d="M271 184 c0 -11 3 -14 6 -6 3 7 2 16 -1 19 -3 4 -6 -2 -5 -13z"/>
 </g>
<g id="layer106" fill="#ec9090" stroke="none">
 <path d="M0 350 l0 -350 350 0 350 0 0 350 0 350 -350 0 -350 0 0 -350z m443 207 c45 -29 103 -77 129 -105 33 -37 53 -52 72 -52 14 0 26 -4 26 -10 0 -5 -12 -10 -27 -10 -27 0 -28 -2 -28 -54 0 -47 -4 -59 -29 -85 -34 -35 -82 -54 -128 -49 -31 3 -33 1 -39 -32 -6 -36 -12 -30 -24 24 -3 16 -14 40 -24 52 l-18 23 -26 -27 c-13 -15 -27 -40 -30 -57 -3 -16 -8 -47 -12 -68 -9 -57 -25 -44 -25 22 l0 58 -46 6 c-82 9 -140 75 -130 150 4 35 3 37 -25 37 -16 0 -29 5 -29 10 0 6 15 10 34 10 25 0 36 5 40 18 4 10 24 35 45 56 42 41 178 134 199 135 7 1 49 -23 95 -52z"/>
 <path d="M275 547 c-73 -44 -155 -115 -155 -135 0 -8 23 -12 69 -12 l68 0 7 -52 c3 -29 6 -70 6 -90 0 -82 18 -30 40 117 31 205 34 205 71 -5 l24 -135 9 118 c5 64 11 117 15 117 3 0 17 -16 31 -35 23 -32 29 -34 79 -35 59 0 58 -1 6 59 -20 24 -179 131 -193 131 -4 -1 -38 -20 -77 -43z"/>
 <path d="M332 400 c-6 -36 -14 -87 -17 -115 l-6 -50 22 28 c20 26 22 27 35 10 18 -24 17 -11 -5 102 l-17 90 -12 -65z"/>
 <path d="M435 388 c-3 -24 -5 -72 -3 -108 l3 -65 40 -3 c48 -3 101 26 115 64 6 14 10 43 10 65 l0 39 -59 0 c-52 0 -62 3 -80 25 l-20 26 -6 -43z"/>
 <path d="M107 373 c-12 -12 -7 -73 8 -103 18 -35 62 -60 105 -60 l30 0 0 63 c0 104 -2 107 -74 107 -35 0 -66 -3 -69 -7z"/>
 <path d="M270 190 c0 -7 3 -10 7 -7 3 4 3 10 0 14 -4 3 -7 0 -7 -7z"/>
 </g>
<g id="layer107" fill="#efb1b1" stroke="none">
 <path d="M0 350 l0 -350 350 0 350 0 0 350 0 350 -350 0 -350 0 0 -350z m566 108 c38 -42 60 -58 78 -58 15 0 26 -4 26 -10 0 -5 -11 -10 -25 -10 -23 0 -25 -4 -25 -46 0 -87 -67 -150 -151 -142 -31 3 -39 0 -39 -13 0 -24 -10 -49 -20 -49 -4 0 -11 20 -14 44 -4 24 -16 52 -27 61 -18 18 -20 17 -44 -5 -17 -16 -26 -38 -31 -79 -13 -109 -31 -117 -36 -16 l-3 50 -41 5 c-82 11 -137 73 -132 148 3 40 2 42 -24 42 -16 0 -28 5 -28 10 0 6 13 10 30 10 24 0 35 8 57 41 18 27 61 63 131 109 l104 68 80 -51 c44 -29 104 -78 134 -109z"/>
 <path d="M253 530 c-79 -52 -133 -102 -133 -124 0 -3 31 -6 69 -6 l69 0 6 -31 c3 -17 6 -59 6 -92 0 -96 15 -56 40 106 12 81 26 150 31 153 10 6 11 1 42 -166 l23 -125 8 110 c4 60 9 111 12 114 2 3 18 -12 35 -32 27 -32 36 -37 75 -37 24 0 44 4 44 10 0 21 -67 83 -132 122 -37 22 -71 44 -74 49 -10 17 -29 9 -121 -51z"/>
 <path d="M331 380 c-7 -41 -14 -88 -17 -105 l-5 -30 21 24 c20 23 21 23 36 5 13 -17 14 -16 8 21 -4 22 -12 67 -19 100 l-12 60 -12 -75z"/>
 <path d="M437 368 c-4 -29 -7 -74 -7 -100 0 -43 3 -48 26 -54 14 -4 44 -1 65 5 50 15 79 59 79 119 l0 42 -57 0 c-43 0 -62 5 -78 20 l-22 21 -6 -53z"/>
 <path d="M106 364 c-26 -69 39 -154 118 -154 24 0 26 3 26 48 0 26 -3 64 -6 85 l-7 37 -62 0 c-48 0 -64 -4 -69 -16z"/>
 </g>
<g id="layer108" fill="#f3d2d2" stroke="none">
 <path d="M0 350 l0 -350 350 0 350 0 0 350 0 350 -350 0 -350 0 0 -350z m424 223 c85 -56 144 -107 169 -145 14 -20 27 -28 48 -28 16 0 29 -4 29 -10 0 -5 -11 -10 -25 -10 -23 0 -25 -4 -25 -47 0 -89 -65 -149 -151 -141 -36 3 -38 2 -41 -26 -5 -47 -25 -42 -32 7 -4 25 -16 53 -27 62 -18 18 -20 17 -43 -4 -17 -16 -25 -38 -30 -82 -4 -33 -10 -67 -13 -75 -9 -24 -23 -4 -23 34 0 66 -9 82 -44 82 -77 0 -140 69 -134 148 3 40 2 42 -24 42 -16 0 -28 5 -28 10 0 6 13 10 28 10 22 0 35 10 60 45 21 30 65 67 129 109 54 36 100 65 102 65 2 1 35 -20 75 -46z"/>
 <path d="M275 544 c-74 -46 -155 -116 -155 -134 0 -6 28 -10 69 -10 81 0 81 0 81 -101 0 -38 3 -69 8 -69 4 0 17 66 30 147 21 138 35 186 46 152 3 -8 15 -72 28 -144 l23 -130 7 104 c4 56 10 106 13 110 4 3 20 -11 37 -31 26 -34 35 -38 74 -38 24 0 44 4 44 9 0 22 -57 74 -139 125 -48 31 -90 56 -92 55 -2 0 -35 -21 -74 -45z"/>
 <path d="M331 370 c-7 -47 -15 -94 -17 -105 -4 -18 -2 -17 16 5 21 24 22 24 36 5 17 -23 17 -22 -5 90 l-18 90 -12 -85z"/>
 <path d="M435 326 c-6 -78 -4 -100 6 -108 19 -12 85 -1 115 18 26 18 48 76 42 114 -3 23 -8 25 -62 28 -46 2 -63 8 -76 24 -17 21 -18 19 -25 -76z"/>
 <path d="M106 355 c-8 -32 2 -74 23 -99 19 -22 71 -46 101 -46 22 0 25 22 14 118 l-7 52 -62 0 c-59 0 -63 -2 -69 -25z"/>
 </g>
<g id="layer109" fill="#f6f6f6" stroke="none">
 <path d="M0 350 l0 -350 350 0 350 0 0 350 0 350 -350 0 -350 0 0 -350z m452 207 c47 -31 103 -76 124 -101 21 -25 46 -46 55 -46 27 0 49 -11 43 -21 -3 -5 -16 -9 -29 -9 -21 0 -23 -4 -23 -43 2 -87 -57 -147 -144 -147 -45 0 -47 -1 -50 -33 -4 -47 -21 -39 -33 16 -24 110 -77 92 -98 -33 -18 -106 -47 -101 -47 8 0 42 0 42 -37 42 -78 0 -133 60 -133 145 0 42 -2 45 -26 45 -37 0 -25 24 14 28 19 2 33 10 37 21 3 10 18 30 34 45 41 39 204 146 216 142 6 -2 50 -29 97 -59z"/>
 <path d="M272 540 c-75 -49 -127 -93 -142 -120 -7 -13 1 -14 51 -12 82 5 89 -2 89 -101 0 -45 4 -77 8 -72 5 6 18 75 30 154 12 80 24 146 26 149 14 13 26 -22 47 -145 l24 -138 5 102 c3 56 9 105 13 110 5 4 21 -6 35 -23 22 -26 36 -32 75 -35 26 -2 47 -1 47 3 0 18 -80 86 -150 128 -41 25 -77 46 -80 47 -3 1 -38 -20 -78 -47z"/>
 <path d="M341 425 c-1 -11 -8 -55 -15 -99 -12 -75 -12 -77 5 -55 14 19 20 21 32 11 13 -11 13 -5 2 50 -7 35 -15 74 -18 88 -3 19 -5 21 -6 5z"/>
 <path d="M440 375 c0 -27 -3 -73 -6 -101 -6 -50 -6 -51 21 -56 64 -13 127 28 140 89 12 60 1 73 -64 73 -49 0 -61 4 -74 23 -15 21 -16 20 -17 -28z"/>
 <path d="M110 331 c0 -59 26 -96 76 -110 55 -15 67 -6 60 47 -3 25 -6 60 -6 78 l0 34 -65 0 -65 0 0 -49z"/>
 </g>

</svg>